<?xml version="1.0" encoding="UTF-8" standalone="no"?><!DOCTYPE svg PUBLIC "-//W3C//DTD SVG 1.1//EN" "http://www.w3.org/Graphics/SVG/1.1/DTD/svg11.dtd"><svg width="100%" height="100%" viewBox="0 0 1004 950" version="1.1" xmlns="http://www.w3.org/2000/svg" xmlns:xlink="http://www.w3.org/1999/xlink" xml:space="preserve" xmlns:serif="http://www.serif.com/" style="fill-rule:evenodd;clip-rule:evenodd;stroke-linejoin:round;stroke-miterlimit:2;"><rect id="Artboard1" x="0" y="0" width="1003.43" height="949.062" style="fill:none;"/><path d="M734.757,819.15c-61.029,45.062 -137.397,71.858 -220.226,71.858c-82.838,0 -159.214,-26.802 -220.231,-71.858l62.834,0c46.713,24.678 100.362,38.721 157.397,38.721c57.03,0 110.675,-14.041 157.396,-38.721l62.83,0Zm-391.884,-23.568l-247.792,0l0,-62.509l44.954,-77.374l21.13,0c15.821,10.851 36.555,17.431 59.243,17.431c22.688,0 43.422,-6.58 59.243,-17.431l22.929,0l40.293,69.351l0,70.532Zm594.567,-1.456l-247.792,0l0,-62.51l44.954,-77.373l21.13,0c15.821,10.85 36.555,17.43 59.243,17.43c22.688,0 43.422,-6.58 59.243,-17.43l22.929,0l40.293,69.35l0,70.533Zm-718.149,-280.802c41.63,0 75.429,31.411 75.429,70.1c0,38.69 -33.799,70.101 -75.429,70.101c-41.63,0 -75.428,-31.411 -75.428,-70.101c0,-38.689 33.798,-70.1 75.428,-70.1Zm594.567,-1.457c41.63,0 75.429,31.411 75.429,70.101c0,38.689 -33.799,70.1 -75.429,70.1c-41.63,0 -75.428,-31.411 -75.428,-70.1c0,-38.69 33.798,-70.101 75.428,-70.101Zm-436.023,-290.784l0,36.125c-100.557,44.516 -173.682,136.547 -188.138,246.05l-34.734,0c15.27,-128.083 103.047,-235.103 222.872,-282.175Zm274.804,0.557c119.093,47.343 206.251,154.031 221.459,281.618l-34.733,0c-14.389,-109.005 -86.911,-200.694 -186.726,-245.424l0,-36.194Zm-15.436,116.488l-247.792,0l0,-62.51l44.954,-77.373l21.13,0c15.821,10.85 36.556,17.43 59.243,17.43c22.688,0 43.422,-6.58 59.243,-17.43l22.929,0l40.293,69.35l0,70.533Zm-123.581,-282.258c41.63,0 75.428,31.41 75.428,70.1c0,38.689 -33.798,70.1 -75.428,70.1c-41.63,0 -75.429,-31.411 -75.429,-70.1c0,-38.69 33.799,-70.1 75.429,-70.1Z" style="fill:#fdfdfd;"/></svg>