<?xml version="1.0" encoding="UTF-8" standalone="no"?><!DOCTYPE svg PUBLIC "-//W3C//DTD SVG 1.1//EN" "http://www.w3.org/Graphics/SVG/1.1/DTD/svg11.dtd"><svg width="100%" height="100%" viewBox="0 0 2431 950" version="1.1" xmlns="http://www.w3.org/2000/svg" xmlns:xlink="http://www.w3.org/1999/xlink" xml:space="preserve" xmlns:serif="http://www.serif.com/" style="fill-rule:evenodd;clip-rule:evenodd;stroke-linejoin:round;stroke-miterlimit:2;"><rect id="Artboard1" x="0" y="0" width="2430.95" height="949.771" style="fill:none;"/><path d="M457.216,91.499c211.907,0 383.948,172.012 383.948,383.884c0,211.871 -172.041,383.884 -383.948,383.884c-211.906,0 -383.947,-172.013 -383.947,-383.884c0,-211.872 172.041,-383.884 383.947,-383.884Zm0,51.722c183.356,0 332.217,148.837 332.217,332.162c0,183.325 -148.861,332.161 -332.217,332.161c-183.355,0 -332.216,-148.836 -332.216,-332.161c0,-183.325 148.861,-332.162 332.216,-332.162Zm69.443,344.088l36.909,-94.027l119.309,0l59.654,151.973l-175.702,0l61.155,162.382l-331.911,0l59.363,-157.625l-176.884,0l59.655,-151.973l119.308,0l35.042,89.27l134.102,0Zm-66.562,-177.496c50.994,0 92.395,39.426 92.395,87.988c0,48.562 -41.401,87.988 -92.395,87.988c-50.994,0 -92.395,-39.426 -92.395,-87.988c0,-48.562 41.401,-87.988 92.395,-87.988Zm-163.624,-34.203c36.66,0 66.424,27.194 66.424,60.69c0,33.496 -29.764,60.691 -66.424,60.691c-36.661,0 -66.425,-27.195 -66.425,-60.691c0,-33.496 29.764,-60.69 66.425,-60.69Zm325.361,-4.757c36.661,0 66.425,27.195 66.425,60.69c0,33.496 -29.764,60.691 -66.425,60.691c-36.661,0 -66.424,-27.195 -66.424,-60.691c0,-33.495 29.763,-60.69 66.424,-60.69Z" style="fill:#007cff;"/><text x="993.708px" y="758.667px" style="font-family:'Arial-BoldMT', 'Arial', sans-serif;font-weight:700;font-size:797.264px;fill:#0076ff;">P<tspan x="1370.05px 1828.54px " y="758.667px 758.667px ">AS</tspan></text></svg>