<?xml version="1.0" encoding="UTF-8" standalone="no"?><!DOCTYPE svg PUBLIC "-//W3C//DTD SVG 1.1//EN" "http://www.w3.org/Graphics/SVG/1.1/DTD/svg11.dtd"><svg width="100%" height="100%" viewBox="0 0 1731 478" version="1.1" xmlns="http://www.w3.org/2000/svg" xmlns:xlink="http://www.w3.org/1999/xlink" xml:space="preserve" xmlns:serif="http://www.serif.com/" style="fill-rule:evenodd;clip-rule:evenodd;stroke-linejoin:round;stroke-miterlimit:2;"><rect id="Artboard1" x="0" y="0" width="1730.41" height="477.782" style="fill:none;"/><text x="386.007px" y="221.152px" style="font-family:'Baskerville-Bold', 'Baskerville', serif;font-weight:700;font-size:150px;fill:#2a577b;">R<tspan x="493.976px 568.978px 657.476px 744.428px 819.43px 888.387px 940.895px " y="221.152px 221.152px 221.152px 221.152px 221.152px 221.152px 221.152px ">equests</tspan></text><text x="391.115px" y="345.952px" style="font-family:'HelveticaNeue', 'Helvetica Neue';font-size:58.333px;fill:#fd8735;">R<tspan x="436.545px 472.159px 511.488px 548.362px 583.977px 617.137px 638.028px 671.189px 689.626px 709.257px 730.149px 768.217px 824.789px 843.226px 857.949px 893.564px 929.178px 950.07px 986.944px 1007.84px 1043.45px 1065.54px 1098.69px 1117.13px 1152.75px 1189.62px 1228.95px 1247.39px 1280.55px 1301.44px 1338.31px 1377.64px 1413.26px 1450.13px 1471.02px 1504.18px " y="345.952px 345.952px 345.952px 345.952px 345.952px 345.952px 345.952px 345.952px 345.952px 345.952px 345.952px 345.952px 345.952px 345.952px 345.952px 345.952px 345.952px 345.952px 345.952px 345.952px 345.952px 345.952px 345.952px 345.952px 345.952px 345.952px 345.952px 345.952px 345.952px 345.952px 345.952px 345.952px 345.952px 345.952px 345.952px 345.952px ">equests from lecturers and students.</tspan></text><path d="M204.083,356.939c0.093,0.851 0.14,1.711 0.14,2.579c0,19.07 -22.659,34.553 -50.567,34.553c-27.908,0 -50.567,-15.483 -50.567,-34.553c0,-0.868 0.047,-1.728 0.14,-2.579l100.854,0Zm58.643,-152.928l0,89.18l0.331,0l25.251,40.6l0,17.063l-268.891,0l0,-20.214l23.247,-37.377l0,-124.756l0.733,0l0,-0.029c0,-33.239 36.301,-61.097 84.9,-68.221c-0.694,-2.739 -1.067,-5.637 -1.067,-8.635c0,-16.929 11.873,-30.673 26.496,-30.673c14.623,0 26.496,13.744 26.496,30.673c0,3.096 -0.397,6.086 -1.136,8.904c5.139,0.812 10.134,1.856 14.965,3.116c-4.162,9.017 -6.484,19.055 -6.484,29.631c0,39.112 31.755,70.866 70.867,70.866c1.443,0 2.876,-0.043 4.292,-0.128Zm-0.291,-144.491c39.049,0 70.752,31.754 70.752,70.866c0,39.113 -31.703,70.867 -70.752,70.867c-39.049,0 -70.752,-31.754 -70.752,-70.867c0,-39.112 31.703,-70.866 70.752,-70.866Zm0,3.051c37.368,0 67.706,30.387 67.706,67.815c0,37.429 -30.338,67.816 -67.706,67.816c-37.368,0 -67.706,-30.387 -67.706,-67.816c0,-37.428 30.338,-67.815 67.706,-67.815Zm5.095,102.001l-10.63,0l0,10.63l10.63,0l0,-10.63Zm-14.787,-79.999l18.729,0l-4.682,69.391l-9.365,0l-4.682,-69.391Z" style="fill:#2e6189;"/></svg>