<?xml version="1.0" encoding="UTF-8" standalone="no"?><!DOCTYPE svg PUBLIC "-//W3C//DTD SVG 1.1//EN" "http://www.w3.org/Graphics/SVG/1.1/DTD/svg11.dtd"><svg width="100%" height="100%" viewBox="0 0 1654 426" version="1.1" xmlns="http://www.w3.org/2000/svg" xmlns:xlink="http://www.w3.org/1999/xlink" xml:space="preserve" xmlns:serif="http://www.serif.com/" style="fill-rule:evenodd;clip-rule:evenodd;stroke-linejoin:round;stroke-miterlimit:2;"><rect id="Artboard1" x="0" y="0" width="1653.54" height="425.197" style="fill:none;"/><text x="412.563px" y="179.374px" style="font-family:'Baskerville-Bold', 'Baskerville', serif;font-weight:700;font-size:125px;fill:#2a577b;">C<tspan x="502.537px 560.001px 622.503px 689.984px 733.741px " y="179.374px 179.374px 179.374px 179.374px 179.374px ">reate</tspan></text><text x="415.989px" y="292.689px" style="font-family:'Baskerville-Bold', 'Baskerville', serif;font-weight:700;font-size:125px;fill:#2a577b;">a<tspan x="489.879px 552.801px 615.724px 659.532px 730.664px 810.007px 935.915px 1004.35px 1083.7px 1131.61px " y="292.689px 292.689px 292.689px 292.689px 292.689px 292.689px 292.689px 292.689px 292.689px 292.689px ">ssignments</tspan></text><text x="419.303px" y="392.974px" style="font-family:'HelveticaNeue', 'Helvetica Neue';font-size:58.333px;fill:#fd8735;">C<tspan x="467.187px 488.078px 523.693px 559.307px 580.199px 615.813px 634.25px 671.125px 706.739px 757.011px 775.448px 811.063px 844.223px 877.384px 892.107px 930.175px 967.05px 1023.62px 1059.24px 1096.11px 1117px 1135.44px 1155.07px 1193.14px 1215.22px 1233.66px 1272.99px 1308.6px 1344.22px 1366.3px 1399.46px 1417.9px 1438.79px 1474.41px 1507.57px 1522.29px 1557.91px 1604.53px " y="392.974px 392.974px 392.974px 392.974px 392.974px 392.974px 392.974px 392.974px 392.974px 392.974px 392.974px 392.974px 392.974px 392.974px 392.974px 392.974px 392.974px 392.974px 392.974px 392.974px 392.974px 392.974px 392.974px 392.974px 392.974px 392.974px 392.974px 392.974px 392.974px 392.974px 392.974px 392.974px 392.974px 392.974px 392.974px 392.974px 392.974px 392.974px ">reate new assignment for peers review.</tspan></text><path d="M312.266,81.389l42.469,0l0,314l-256.241,0l0,-39.396l-42.469,0l0,-314l256.241,0l0,39.396Zm0,12.576l0,194.913l-12.218,12.134l0,-0.417l-43.124,42.828l0.42,0l-12.657,12.57l-132.285,0l0,26.825l230.115,0l0,-288.853l-30.251,0Zm-12.218,194.519l0,-233.914l-230.115,0l0,288.853l175.003,0l-0.543,-55.477l55.655,0.538Zm-44.15,9.871l29.549,0.277l-29.27,29.07l-0.279,-29.347Zm-47.609,-9.324l-109.537,0l0,11.109l109.537,0l0,-11.109Zm71.109,-45.647l-182.85,0l0,11.109l182.85,0l0,-11.109Zm-0.955,-41.184l-182.85,0l0,11.11l182.85,0l0,-11.11Zm-0.701,-40.941l-182.85,0l0,11.11l182.85,0l0,-11.11Zm0.216,-36.235l-182.85,0l0,11.11l182.85,0l0,-11.11Zm0.263,-34.834l-182.85,0l0,11.109l182.85,0l0,-11.109Z" style="fill:#2a577b;"/></svg>