<?xml version="1.0" encoding="UTF-8" standalone="no"?><!DOCTYPE svg PUBLIC "-//W3C//DTD SVG 1.1//EN" "http://www.w3.org/Graphics/SVG/1.1/DTD/svg11.dtd"><svg width="100%" height="100%" viewBox="0 0 1038 703" version="1.1" xmlns="http://www.w3.org/2000/svg" xmlns:xlink="http://www.w3.org/1999/xlink" xml:space="preserve" xmlns:serif="http://www.serif.com/" style="fill-rule:evenodd;clip-rule:evenodd;stroke-linejoin:round;stroke-miterlimit:2;"><rect id="Artboard1" x="0" y="0" width="1037.58" height="702.925" style="fill:none;"/><path d="M974.527,104.853c0,-25.987 -21.098,-47.085 -47.085,-47.085l-814.938,0c-25.987,0 -47.085,21.098 -47.085,47.085l0,466.233c0,25.987 21.098,47.086 47.085,47.086l814.938,0c25.987,0 47.085,-21.099 47.085,-47.086l0,-466.233Z" style="fill:#005a80;"/><path d="M951.147,121.775c0,-23.806 -19.327,-43.133 -43.133,-43.133l-775.073,0c-23.805,0 -43.132,19.327 -43.132,43.133l0,427.092c0,23.806 19.327,43.133 43.132,43.133l775.073,0c23.806,0 43.133,-19.327 43.133,-43.133l0,-427.092Z" style="fill:#fff;"/><path d="M996.088,626.106c0,-4.174 -3.388,-7.563 -7.562,-7.563l-935.323,0c-4.174,0 -7.563,3.389 -7.563,7.563l0,15.124c0,4.174 3.389,7.563 7.563,7.563l935.323,0c4.174,0 7.562,-3.389 7.562,-7.563l0,-15.124Z" style="fill:#005a80;"/><text x="336.258px" y="285.049px" style="font-family:'Arial-Black', 'Arial Black', sans-serif;font-weight:900;font-size:174.966px;fill:#005b7b;">P<tspan x="446.729px 581.579px " y="285.049px 285.049px ">AS</tspan></text><rect x="273.689" y="351.298" width="506.031" height="92.254" style="fill:#00a3ff;"/><circle cx="323.265" cy="398.246" r="17.717" style="fill:#0a0a0a;"/><circle cx="369.816" cy="397.998" r="17.717" style="fill:#0a0a0a;"/><circle cx="416.319" cy="397.864" r="17.717" style="fill:#0a0a0a;"/><circle cx="461.832" cy="397.825" r="17.717" style="fill:#0a0a0a;"/><circle cx="506.344" cy="397.329" r="17.717" style="fill:#0a0a0a;"/><circle cx="548.979" cy="397.082" r="17.717" style="fill:#0a0a0a;"/><circle cx="594.416" cy="397.091" r="17.717" style="fill:#0a0a0a;"/><circle cx="640.233" cy="397.72" r="17.717" style="fill:#0a0a0a;"/></svg>