<?xml version="1.0" encoding="UTF-8" standalone="no"?><!DOCTYPE svg PUBLIC "-//W3C//DTD SVG 1.1//EN" "http://www.w3.org/Graphics/SVG/1.1/DTD/svg11.dtd"><svg width="100%" height="100%" viewBox="0 0 1772 473" version="1.1" xmlns="http://www.w3.org/2000/svg" xmlns:xlink="http://www.w3.org/1999/xlink" xml:space="preserve" xmlns:serif="http://www.serif.com/" style="fill-rule:evenodd;clip-rule:evenodd;stroke-linejoin:round;stroke-miterlimit:2;"><rect id="Artboard1" x="0" y="0" width="1771.73" height="472.52" style="fill:none;"/><text x="372.144px" y="171.019px" style="font-family:'Baskerville-Bold', 'Baskerville', serif;font-weight:700;font-size:125px;fill:#2a577b;">M<tspan x="490.88px 558.361px 630.82px 698.301px 763.263px " y="171.019px 171.019px 171.019px 171.019px 171.019px ">anage</tspan></text><text x="375.57px" y="284.333px" style="font-family:'Baskerville-Bold', 'Baskerville', serif;font-weight:700;font-size:125px;fill:#2a577b;">a<tspan x="449.46px 512.383px 575.305px 619.113px 690.246px 769.588px 895.497px 963.935px 1043.28px 1091.19px " y="284.333px 284.333px 284.333px 284.333px 284.333px 284.333px 284.333px 284.333px 284.333px 284.333px ">ssignments</tspan></text><text x="378.885px" y="384.619px" style="font-family:'HelveticaNeue', 'Helvetica Neue';font-size:58.333px;fill:#fd8735;">V<tspan x="418.213px 432.936px 468.551px 518.822px 537.26px 579.042px 597.479px 654.051px 689.666px 726.54px 762.155px 800.223px 835.838px 854.275px 889.889px 926.764px 948.849px 969.74px 1005.36px 1042.23px 1063.12px 1081.56px 1117.17px 1154.05px 1193.38px 1211.81px 1251.14px 1286.76px 1319.92px 1340.81px 1359.25px 1394.86px 1428.02px 1461.18px 1475.9px 1513.97px 1550.85px 1607.42px 1643.03px 1679.91px 1700.8px 1733.96px " y="384.619px 384.619px 384.619px 384.619px 384.619px 384.619px 384.619px 384.619px 384.619px 384.619px 384.619px 384.619px 384.619px 384.619px 384.619px 384.619px 384.619px 384.619px 384.619px 384.619px 384.619px 384.619px 384.619px 384.619px 384.619px 384.619px 384.619px 384.619px 384.619px 384.619px 384.619px 384.619px 384.619px 384.619px 384.619px 384.619px 384.619px 384.619px 384.619px 384.619px 384.619px 384.619px ">iew &amp; manage current and past assignments.</tspan></text><path d="M186.122,388.187l-102.268,0l0,0.119l-13.908,0l0,-0.119l-42.469,0l0,-314l256.242,0l0,39.395l0.141,0l0,12.576l-0.141,0l0,122.416c-3.97,-1.101 -8.05,-1.947 -12.218,-2.516l0,-159.295l-230.116,0l0,288.853l136.535,0c2.379,4.423 5.127,8.627 8.202,12.571Zm-17.631,-66.963c-0.548,3.64 -0.871,7.347 -0.954,11.11l-97.333,0l0,-11.11l98.287,0Zm21.66,-45.647c-3.122,3.475 -5.972,7.189 -8.517,11.109l-113.633,0l0,-11.109l122.15,0Zm59.745,-41.183l-182.85,0l0,11.109l182.85,0l0,-11.109Zm-0.702,-40.941l-182.85,0l0,11.109l182.85,0l0,-11.109Zm0.217,-36.235l-182.85,0l0,11.109l182.85,0l0,-11.109Zm0.262,-34.835l-182.85,0l0,11.11l182.85,0l0,-11.11Z" style="fill:#2a577b;"/><path d="M271.955,252.025c-5.241,-0.495 -10.519,-0.495 -15.76,0l-2.088,15.505c-4.78,0.711 -9.464,1.931 -13.969,3.638l-9.787,-12.414c-4.793,2.118 -9.364,4.682 -13.648,7.657l6.17,14.442c-3.774,2.938 -7.203,6.271 -10.226,9.938l-14.863,-5.996c-3.062,4.163 -5.701,8.604 -7.88,13.262l12.775,9.51c-1.756,4.377 -3.012,8.93 -3.743,13.574l-15.957,2.029c-0.509,5.093 -0.509,10.221 0,15.314l15.957,2.029c0.731,4.644 1.987,9.196 3.743,13.574l-12.775,9.51c2.179,4.657 4.818,9.099 7.88,13.262l14.863,-5.996c3.023,3.667 6.452,7 10.226,9.937l-6.17,14.443c4.284,2.975 8.855,5.539 13.648,7.657l9.787,-12.414c4.505,1.707 9.189,2.927 13.969,3.637l2.088,15.506c5.241,0.495 10.519,0.495 15.76,0l2.087,-15.506c4.78,-0.71 9.465,-1.93 13.97,-3.637l9.786,12.414c4.794,-2.118 9.365,-4.682 13.649,-7.657l-6.171,-14.443c3.774,-2.937 7.204,-6.27 10.227,-9.937l14.863,5.996c3.061,-4.163 5.7,-8.605 7.88,-13.262l-12.775,-9.51c1.756,-4.378 3.011,-8.93 3.743,-13.574l15.956,-2.029c0.51,-5.093 0.51,-10.221 0,-15.314l-15.956,-2.029c-0.732,-4.644 -1.987,-9.197 -3.743,-13.574l12.775,-9.51c-2.18,-4.658 -4.819,-9.099 -7.88,-13.262l-14.863,5.996c-3.023,-3.667 -6.453,-7 -10.227,-9.938l6.171,-14.442c-4.284,-2.975 -8.855,-5.539 -13.649,-7.657l-9.786,12.414c-4.505,-1.707 -9.19,-2.927 -13.97,-3.638l-2.087,-15.505Zm-7.88,36.547c24,0 43.485,18.934 43.485,42.255c0,23.321 -19.485,42.255 -43.485,42.255c-24,0 -43.485,-18.934 -43.485,-42.255c0,-23.321 19.485,-42.255 43.485,-42.255Z" style="fill:#2e6189;"/></svg>