<?xml version="1.0" encoding="UTF-8" standalone="no"?><!DOCTYPE svg PUBLIC "-//W3C//DTD SVG 1.1//EN" "http://www.w3.org/Graphics/SVG/1.1/DTD/svg11.dtd"><svg width="100%" height="100%" viewBox="0 0 1654 426" version="1.1" xmlns="http://www.w3.org/2000/svg" xmlns:xlink="http://www.w3.org/1999/xlink" xml:space="preserve" xmlns:serif="http://www.serif.com/" style="fill-rule:evenodd;clip-rule:evenodd;stroke-linejoin:round;stroke-miterlimit:2;"><rect id="Artboard1" x="0" y="0" width="1653.54" height="425.197" style="fill:none;"/><path d="M164.865,181.589l-116.73,0l0,-26.991l21.177,-33.41l9.954,0c7.453,4.685 17.221,7.526 27.908,7.526c10.688,0 20.456,-2.841 27.909,-7.526l10.801,0l18.981,29.945l0,30.456Zm-58.217,-121.878c19.611,0 35.533,13.563 35.533,30.269c0,16.706 -15.922,30.269 -35.533,30.269c-19.611,0 -35.533,-13.563 -35.533,-30.269c0,-16.706 15.922,-30.269 35.533,-30.269Z" style="fill:#2a577b;"/><path d="M159.937,315.59l-116.73,0l0,-26.991l21.177,-33.41l9.954,0c7.453,4.685 17.22,7.527 27.908,7.527c10.688,0 20.455,-2.842 27.908,-7.527l10.802,0l18.981,29.946l0,30.455Zm-58.217,-121.878c19.611,0 35.533,13.563 35.533,30.269c0,16.706 -15.922,30.269 -35.533,30.269c-19.611,0 -35.533,-13.563 -35.533,-30.269c0,-16.706 15.922,-30.269 35.533,-30.269Z" style="fill:#2a577b;"/><path d="M317.398,214.692c-5.096,-0.446 -10.227,-0.446 -15.322,0l-2.523,11.066c-4.884,0.673 -9.67,1.828 -14.273,3.445l-8.328,-8.447c-4.66,1.909 -9.104,4.22 -13.269,6.901l3.957,10.719c-3.856,2.783 -7.359,5.939 -10.448,9.412l-11.901,-3.564c-2.977,3.751 -5.542,7.754 -7.661,11.952l9.377,7.501c-1.794,4.146 -3.077,8.458 -3.824,12.857l-12.285,2.273c-0.495,4.589 -0.495,9.211 0,13.801l12.285,2.273c0.747,4.399 2.03,8.711 3.824,12.857l-9.377,7.501c2.119,4.198 4.684,8.201 7.661,11.952l11.901,-3.564c3.089,3.473 6.592,6.629 10.448,9.412l-3.957,10.719c4.165,2.681 8.609,4.992 13.269,6.901l8.328,-8.447c4.603,1.617 9.389,2.772 14.273,3.445l2.523,11.066c5.095,0.446 10.226,0.446 15.322,0l2.523,-11.066c4.884,-0.673 9.67,-1.828 14.273,-3.445l8.328,8.447c4.66,-1.909 9.104,-4.22 13.269,-6.901l-3.958,-10.719c3.856,-2.783 7.36,-5.939 10.449,-9.412l11.901,3.564c2.976,-3.751 5.542,-7.754 7.661,-11.952l-9.378,-7.501c1.795,-4.146 3.077,-8.458 3.825,-12.857l12.285,-2.273c0.495,-4.59 0.495,-9.212 0,-13.801l-12.285,-2.273c-0.748,-4.399 -2.03,-8.711 -3.825,-12.857l9.378,-7.501c-2.119,-4.198 -4.685,-8.201 -7.661,-11.952l-11.901,3.564c-3.089,-3.473 -6.593,-6.629 -10.449,-9.412l3.958,-10.719c-4.165,-2.681 -8.609,-4.992 -13.269,-6.901l-8.328,8.447c-4.603,-1.617 -9.389,-2.772 -14.273,-3.445l-2.523,-11.066Zm-7.661,36.017c21.444,0 38.854,15.682 38.854,34.998c0,19.317 -17.41,34.999 -38.854,34.999c-21.444,0 -38.854,-15.682 -38.854,-34.999c0,-19.316 17.41,-34.998 38.854,-34.998Z" style="fill:#2a577b;"/><path d="M220.435,265.879l-66.669,0l0,-42.517l29.027,-52.628l13.644,0c10.216,7.38 23.604,11.856 38.253,11.856c14.65,0 28.038,-4.476 38.254,-11.856l14.805,0l15.529,28.155c-0.943,-0.031 -1.887,-0.047 -2.834,-0.047c-41.167,0 -75.166,29.288 -80.009,67.037Zm13.534,-191.985c26.881,0 48.705,21.365 48.705,47.681c0,26.315 -21.824,47.68 -48.705,47.68c-26.88,0 -48.704,-21.365 -48.704,-47.68c0,-26.316 21.824,-47.681 48.704,-47.681Z" style="fill:#2a577b;"/><text x="444.577px" y="150.632px" style="font-family:'Baskerville-Bold', 'Baskerville', serif;font-weight:700;font-size:125px;fill:#2a577b;">M<tspan x="563.313px 630.793px 703.253px 770.734px 835.696px " y="150.632px 150.632px 150.632px 150.632px 150.632px ">anage</tspan></text><text x="447.796px" y="266.262px" style="font-family:'Baskerville-Bold', 'Baskerville', serif;font-weight:700;font-size:125px;fill:#2a577b;">s<tspan x="510.718px 558.631px 637.973px 718.727px 787.165px 866.508px 914.421px " y="266.262px 266.262px 266.262px 266.262px 266.262px 266.262px 266.262px ">tudents</tspan></text><text x="455.762px" y="356.422px" style="font-family:'HelveticaNeue', 'Helvetica Neue';font-size:58.333px;fill:#fd8735;">A<tspan x="498.738px 538.067px 577.395px 595.832px 628.993px 649.884px 686.759px 726.087px 761.702px 798.576px 819.467px 852.628px 871.065px 891.956px 930.025px 948.462px 981.623px 1020.95px 1056.57px 1092.18px 1106.9px 1141.26px 1176.87px 1195.31px 1232.18px 1269.06px 1283.78px 1304.67px 1337.83px " y="356.422px 356.422px 356.422px 356.422px 356.422px 356.422px 356.422px 356.422px 356.422px 356.422px 356.422px 356.422px 356.422px 356.422px 356.422px 356.422px 356.422px 356.422px 356.422px 356.422px 356.422px 356.422px 356.422px 356.422px 356.422px 356.422px 356.422px 356.422px 356.422px ">dd students to speciï¬c units.</tspan></text></svg>