<?xml version="1.0" encoding="UTF-8" standalone="no"?><!DOCTYPE svg PUBLIC "-//W3C//DTD SVG 1.1//EN" "http://www.w3.org/Graphics/SVG/1.1/DTD/svg11.dtd"><svg width="100%" height="100%" viewBox="0 0 1751 415" version="1.1" xmlns="http://www.w3.org/2000/svg" xmlns:xlink="http://www.w3.org/1999/xlink" xml:space="preserve" xmlns:serif="http://www.serif.com/" style="fill-rule:evenodd;clip-rule:evenodd;stroke-linejoin:round;stroke-miterlimit:2;"><rect id="Artboard1" x="0" y="0" width="1750.98" height="414.615" style="fill:none;"/><g><g><path d="M175.582,194.182l-150.889,0l0,-38.351l27.374,-47.469l12.867,0c9.634,6.657 22.259,10.694 36.075,10.694c13.815,0 26.441,-4.037 36.075,-10.694l13.962,0l24.536,42.547l0,43.273Zm-75.253,-173.169c25.35,0 45.931,19.271 45.931,43.008c0,23.736 -20.581,43.007 -45.931,43.007c-25.35,0 -45.931,-19.271 -45.931,-43.007c0,-23.737 20.581,-43.008 45.931,-43.008Z" style="fill:#2a577b;"/><path d="M65.873,107.934l69.232,0l-17.308,76.245l-34.616,0l-17.308,-76.245Z" style="fill:#fff;"/><path d="M116.404,184.538l-32.178,0l8.045,-57.614l16.089,0l8.044,57.614Z" style="fill:#295f8a;"/><path d="M83.57,111.174l33.206,0l-8.302,15.629l-16.603,0l-8.301,-15.629Z" style="fill:#295f8a;"/></g><g><path d="M176.681,374.218l-150.889,0l0,-38.351l27.374,-47.469l12.867,0c9.634,6.657 22.26,10.694 36.075,10.694c13.816,0 26.441,-4.037 36.075,-10.694l13.963,0l24.535,42.547l0,43.273Zm-75.253,-173.169c25.35,0 45.931,19.271 45.931,43.008c0,23.736 -20.581,43.007 -45.931,43.007c-25.35,0 -45.931,-19.271 -45.931,-43.007c0,-23.737 20.581,-43.008 45.931,-43.008Z" style="fill:#2a577b;"/><path d="M66.973,287.97l69.232,0l-17.308,76.245l-34.616,0l-17.308,-76.245Z" style="fill:#fff;"/><path d="M117.504,364.574l-32.179,0l8.045,-57.614l16.089,0l8.045,57.614Z" style="fill:#295f8a;"/><path d="M84.67,291.21l33.205,0l-8.301,15.629l-16.603,0l-8.301,-15.629Z" style="fill:#295f8a;"/></g><g><path d="M313.034,289.638l-50.443,0l12.611,-81.079l25.221,0l12.611,81.079Z" style="fill:#295f8a;"/><path d="M261.563,186.395l52.053,0l-13.013,21.994l-26.027,0l-13.013,-21.994Z" style="fill:#295f8a;"/><path d="M338.058,185.161c0.927,-0.608 1.836,-1.231 2.728,-1.87l20.443,0l20.433,36.761c-31.016,19 -52.357,53.627 -54.267,93.602l-151.17,0l0,-58.255l40.081,-72.108l18.839,0c0.704,0.505 1.419,0.999 2.144,1.484l25.117,102.521l50.63,0l25.022,-102.135Zm-51.088,-134.556c37.117,0 67.251,29.274 67.251,65.33c0,36.056 -30.134,65.329 -67.251,65.329c-37.117,0 -67.251,-29.273 -67.251,-65.329c0,-36.056 30.134,-65.33 67.251,-65.33Z" style="fill:#2a577b;"/><path d="M421.723,226.098c-4.782,-0.396 -9.598,-0.396 -14.381,0l-2.368,9.821c-4.584,0.598 -9.077,1.623 -13.397,3.058l-7.817,-7.497c-4.374,1.694 -8.545,3.745 -12.454,6.125l3.714,9.514c-3.619,2.47 -6.907,5.271 -9.807,8.354l-11.17,-3.164c-2.794,3.33 -5.202,6.883 -7.19,10.608l8.801,6.658c-1.684,3.68 -2.888,7.507 -3.589,11.412l-11.531,2.017c-0.465,4.074 -0.465,8.176 0,12.25l11.531,2.017c0.701,3.904 1.905,7.731 3.589,11.411l-8.801,6.658c1.988,3.726 4.396,7.279 7.19,10.609l11.17,-3.164c2.9,3.083 6.188,5.884 9.807,8.354l-3.714,9.514c3.909,2.38 8.08,4.431 12.454,6.125l7.817,-7.497c4.32,1.435 8.813,2.46 13.397,3.057l2.368,9.822c4.783,0.396 9.599,0.396 14.381,0l2.369,-9.822c4.583,-0.597 9.076,-1.622 13.397,-3.057l7.816,7.497c4.374,-1.694 8.545,-3.745 12.454,-6.125l-3.714,-9.514c3.619,-2.47 6.908,-5.271 9.807,-8.354l11.17,3.164c2.794,-3.33 5.202,-6.883 7.191,-10.609l-8.802,-6.658c1.685,-3.68 2.889,-7.507 3.59,-11.411l11.531,-2.017c0.464,-4.074 0.464,-8.176 0,-12.25l-11.531,-2.017c-0.701,-3.905 -1.905,-7.732 -3.59,-11.412l8.802,-6.658c-1.989,-3.725 -4.397,-7.278 -7.191,-10.608l-11.17,3.164c-2.899,-3.083 -6.188,-5.884 -9.807,-8.354l3.714,-9.514c-3.909,-2.38 -8.08,-4.431 -12.454,-6.125l-7.816,7.497c-4.321,-1.435 -8.814,-2.46 -13.397,-3.058l-2.369,-9.821Zm-7.19,31.967c20.128,0 36.469,13.919 36.469,31.064c0,17.145 -16.341,31.064 -36.469,31.064c-20.128,0 -36.469,-13.919 -36.469,-31.064c0,-17.145 16.341,-31.064 36.469,-31.064Z" style="fill:#2a577b;"/></g></g><text x="529.715px" y="145.909px" style="font-family:'Baskerville-Bold', 'Baskerville', serif;font-weight:700;font-size:125px;fill:#2a577b;">M<tspan x="648.45px 715.931px 788.391px 855.872px 920.833px " y="145.909px 145.909px 145.909px 145.909px 145.909px ">anage</tspan></text><text x="529.384px" y="279.674px" style="font-family:'Baskerville-Bold', 'Baskerville', serif;font-weight:700;font-size:125px;fill:#2a577b;">l<tspan x="570.435px 638.873px 703.206px 751.12px 830.462px 893.384px 961.823px 1024.75px " y="279.674px 279.674px 279.674px 279.674px 279.674px 279.674px 279.674px 279.674px ">ecturers</tspan></text><text x="534.624px" y="389.207px" style="font-family:'HelveticaNeue', 'Helvetica Neue';font-size:58.443px;fill:#fd8735;">V<tspan x="574.026px 588.777px 624.459px 674.825px 693.297px 735.158px 753.63px 789.311px 804.062px 818.813px 856.953px 892.635px 928.316px 949.247px 984.928px 1003.4px 1040.34px 1077.29px 1092.04px 1112.97px 1146.19px 1164.66px 1185.6px 1223.74px 1242.21px 1256.96px 1292.64px 1328.32px 1349.25px 1386.2px 1407.13px 1442.81px 1464.93px 1498.16px " y="389.207px 389.207px 389.207px 389.207px 389.207px 389.207px 389.207px 389.207px 389.207px 389.207px 389.207px 389.207px 389.207px 389.207px 389.207px 389.207px 389.207px 389.207px 389.207px 389.207px 389.207px 389.207px 389.207px 389.207px 389.207px 389.207px 389.207px 389.207px 389.207px 389.207px 389.207px 389.207px 389.207px 389.207px ">iew &amp; allocate units to lecturers.</tspan></text></svg>