<?xml version="1.0" encoding="UTF-8" standalone="no"?><!DOCTYPE svg PUBLIC "-//W3C//DTD SVG 1.1//EN" "http://www.w3.org/Graphics/SVG/1.1/DTD/svg11.dtd"><svg width="100%" height="100%" viewBox="0 0 846 836" version="1.1" xmlns="http://www.w3.org/2000/svg" xmlns:xlink="http://www.w3.org/1999/xlink" xml:space="preserve" xmlns:serif="http://www.serif.com/" style="fill-rule:evenodd;clip-rule:evenodd;stroke-linejoin:round;stroke-miterlimit:2;"><rect id="Artboard1" x="0" y="0" width="845.122" height="835.766" style="fill:none;"/><path d="M205.002,282.041c1.231,-124.926 99.284,-225.954 219.882,-225.954c120.5,0 218.493,100.866 219.878,225.646c56.624,9.406 99.849,58.659 99.849,117.928l0,239.091c0,65.979 -53.566,119.546 -119.545,119.546l-398.6,0c-65.979,0 -119.545,-53.567 -119.545,-119.546l0,-239.091c0,-58.655 42.334,-107.501 98.081,-117.62Zm361.51,-1.926c-2.192,-79.208 -64.812,-142.821 -141.628,-142.821c-76.816,0 -139.437,63.613 -141.629,142.821l283.257,0Z" style="fill:#005a80;"/><text x="144.74px" y="606.169px" style="font-family:'Arial-Black', 'Arial Black', sans-serif;font-weight:900;font-size:271.206px;fill:#fff;">P<tspan x="309.824px 511.341px " y="606.169px 606.169px ">AS</tspan></text></svg>