<?xml version="1.0" encoding="UTF-8" standalone="no"?><!DOCTYPE svg PUBLIC "-//W3C//DTD SVG 1.1//EN" "http://www.w3.org/Graphics/SVG/1.1/DTD/svg11.dtd"><svg width="100%" height="100%" viewBox="0 0 1004 1004" version="1.1" xmlns="http://www.w3.org/2000/svg" xmlns:xlink="http://www.w3.org/1999/xlink" xml:space="preserve" xmlns:serif="http://www.serif.com/" style="fill-rule:evenodd;clip-rule:evenodd;stroke-linejoin:round;stroke-miterlimit:2;"><rect id="Artboard1" x="0" y="0" width="1003.94" height="1003.94" style="fill:none;"/><path d="M495.88,76.438c228.278,0 413.611,185.245 413.611,413.414c0,228.17 -185.333,413.415 -413.611,413.415c-228.278,0 -413.611,-185.245 -413.611,-413.415c0,-228.169 185.333,-413.414 413.611,-413.414Zm0,55.701c197.521,0 357.884,160.286 357.884,357.713c0,197.428 -160.363,357.714 -357.884,357.714c-197.521,0 -357.883,-160.286 -357.883,-357.714c0,-197.427 160.362,-357.713 357.883,-357.713Zm74.808,370.557l39.76,-101.26l128.527,0l64.263,163.663l-189.276,0l65.879,174.874l-357.555,0l63.95,-169.751l-190.55,0l64.264,-163.663l128.526,0l37.749,96.137l144.463,0Zm-71.705,-191.149c54.934,0 99.534,42.459 99.534,94.756c0,52.298 -44.6,94.756 -99.534,94.756c-54.934,0 -99.533,-42.458 -99.533,-94.756c0,-52.297 44.599,-94.756 99.533,-94.756Zm-176.266,-36.835c39.493,0 71.557,29.286 71.557,65.359c0,36.073 -32.064,65.359 -71.557,65.359c-39.493,0 -71.556,-29.286 -71.556,-65.359c0,-36.073 32.063,-65.359 71.556,-65.359Zm350.499,-5.123c39.493,0 71.557,29.287 71.557,65.359c0,36.073 -32.064,65.359 -71.557,65.359c-39.493,0 -71.556,-29.286 -71.556,-65.359c0,-36.072 32.063,-65.359 71.556,-65.359Z" style="fill:#007cff;"/></svg>