<?xml version="1.0" encoding="UTF-8" standalone="no"?><!DOCTYPE svg PUBLIC "-//W3C//DTD SVG 1.1//EN" "http://www.w3.org/Graphics/SVG/1.1/DTD/svg11.dtd"><svg width="100%" height="100%" viewBox="0 0 963 922" version="1.1" xmlns="http://www.w3.org/2000/svg" xmlns:xlink="http://www.w3.org/1999/xlink" xml:space="preserve" xmlns:serif="http://www.serif.com/" style="fill-rule:evenodd;clip-rule:evenodd;stroke-linejoin:round;stroke-miterlimit:2;"><rect id="Artboard1" x="0" y="0" width="962.81" height="921.194" style="fill:none;"/><path d="M698.325,803.15c-61.029,45.062 -137.397,71.858 -220.226,71.858c-82.838,0 -159.214,-26.802 -220.231,-71.858l62.834,0c46.713,24.678 100.362,38.721 157.397,38.721c57.03,0 110.675,-14.041 157.396,-38.721l62.83,0Zm-391.884,-23.568l-247.792,0l0,-62.509l44.954,-77.374l21.13,0c15.821,10.851 36.555,17.431 59.243,17.431c22.688,0 43.422,-6.58 59.243,-17.431l22.929,0l40.293,69.351l0,70.532Zm594.567,-1.456l-247.792,0l0,-62.51l44.954,-77.373l21.13,0c15.821,10.85 36.555,17.43 59.243,17.43c22.688,0 43.422,-6.58 59.243,-17.43l22.929,0l40.293,69.35l0,70.533Zm-332.844,-193.418l-25.608,0c-0.112,13.998 1.235,26.087 4.043,36.267c2.808,10.18 6.599,18.558 11.372,25.132c4.774,6.575 10.277,11.4 16.511,14.475c6.233,3.076 12.663,4.613 19.29,4.613c8.199,0 15.415,-1.802 21.648,-5.408c6.234,-3.605 11.457,-8.642 15.668,-15.111c4.212,-6.469 7.385,-14.157 9.519,-23.065c2.134,-8.907 3.201,-18.557 3.201,-28.95c0,-12.725 -1.432,-23.17 -4.296,-31.336c-2.864,-8.165 -6.262,-14.687 -10.193,-19.565c-3.931,-4.878 -7.89,-8.43 -11.877,-10.657c-3.987,-2.227 -7.104,-3.765 -9.35,-4.613c-7.525,-3.605 -13.618,-6.575 -18.279,-8.908c-4.662,-2.333 -8.312,-4.666 -10.951,-6.998c-2.64,-2.333 -4.409,-4.878 -5.307,-7.636c-0.899,-2.757 -1.348,-6.362 -1.348,-10.816c0,-4.878 0.562,-8.908 1.685,-12.089c1.123,-3.181 2.555,-5.832 4.296,-7.953c1.741,-2.121 3.678,-3.606 5.812,-4.454c2.134,-0.849 4.268,-1.273 6.402,-1.273c3.257,0 6.262,0.531 9.013,1.591c2.752,1.06 5.195,2.863 7.329,5.408c2.134,2.545 3.847,6.045 5.138,10.499c1.292,4.453 2.05,10.074 2.275,16.86l25.608,0c0,-13.149 -1.32,-24.337 -3.959,-33.562c-2.64,-9.226 -6.206,-16.808 -10.698,-22.747c-4.493,-5.938 -9.631,-10.233 -15.416,-12.884c-5.784,-2.651 -11.821,-3.977 -18.11,-3.977c-5.392,0 -10.783,1.379 -16.174,4.136c-5.391,2.757 -10.221,6.999 -14.488,12.725c-4.268,5.727 -7.722,12.885 -10.362,21.474c-2.639,8.59 -3.959,18.717 -3.959,30.382c0,10.392 1.039,19.247 3.117,26.564c2.078,7.317 4.802,13.414 8.171,18.292c3.369,4.878 7.188,8.855 11.456,11.93c4.268,3.075 8.648,5.673 13.141,7.794c4.38,2.333 8.704,4.454 12.972,6.363c4.268,1.909 8.087,4.136 11.457,6.681c3.369,2.545 6.093,5.726 8.17,9.544c2.078,3.817 3.117,8.801 3.117,14.952c0,5.726 -0.786,10.445 -2.358,14.157c-1.573,3.711 -3.538,6.627 -5.897,8.748c-2.359,2.121 -4.886,3.553 -7.581,4.295c-2.696,0.742 -5.223,1.113 -7.582,1.113c-3.481,0 -6.851,-0.795 -10.108,-2.386c-3.257,-1.59 -6.093,-4.029 -8.508,-7.317c-2.415,-3.287 -4.352,-7.582 -5.812,-12.884c-1.46,-5.302 -2.19,-11.771 -2.19,-19.406Zm-233.335,-151.748l0,227.145l26.45,0l0,-81.441l27.798,0c7.526,0 13.928,-2.068 19.206,-6.204c5.279,-4.136 9.575,-9.597 12.888,-16.384c3.314,-6.786 5.729,-14.581 7.245,-23.382c1.516,-8.802 2.274,-17.763 2.274,-26.882c0,-9.332 -0.758,-18.346 -2.274,-27.042c-1.516,-8.695 -3.931,-16.436 -7.245,-23.223c-3.313,-6.787 -7.609,-12.248 -12.888,-16.384c-5.278,-4.136 -11.68,-6.203 -19.206,-6.203l-54.248,0Zm132.757,0l-45.488,227.145l26.619,0l9.434,-50.583l44.982,0l9.098,50.583l27.461,0l-44.982,-227.145l-27.124,0Zm-284.727,64.364c41.63,0 75.429,31.411 75.429,70.1c0,38.69 -33.799,70.101 -75.429,70.101c-41.63,0 -75.428,-31.411 -75.428,-70.101c0,-38.689 33.798,-70.1 75.428,-70.1Zm594.567,-1.457c41.63,0 75.429,31.411 75.429,70.101c0,38.689 -33.799,70.1 -75.429,70.1c-41.63,0 -75.428,-31.411 -75.428,-70.1c0,-38.69 33.798,-70.101 75.428,-70.101Zm-312.367,76.434l15.668,-83.35l0.336,0l15.163,83.35l-31.167,0Zm-103.78,-32.449l0,-68.08l20.554,0c3.033,0 5.953,0.424 8.761,1.272c2.808,0.848 5.279,2.492 7.412,4.931c2.134,2.439 3.847,5.886 5.139,10.339c1.292,4.454 1.937,10.287 1.937,17.498c0,7.211 -0.645,13.043 -1.937,17.497c-1.292,4.454 -3.005,7.9 -5.139,10.339c-2.133,2.439 -4.604,4.083 -7.412,4.931c-2.808,0.848 -5.728,1.273 -8.761,1.273l-20.554,0Zm-19.876,-334.769l0,36.125c-100.557,44.516 -173.682,136.547 -188.138,246.05l-34.734,0c15.27,-128.083 103.047,-235.103 222.872,-282.175Zm274.804,0.557c119.093,47.343 206.251,154.031 221.459,281.618l-34.733,0c-14.389,-109.005 -86.911,-200.694 -186.726,-245.424l0,-36.194Zm-15.436,116.488l-247.792,0l0,-62.51l44.954,-77.373l21.13,0c15.821,10.85 36.556,17.43 59.243,17.43c22.688,0 43.422,-6.58 59.243,-17.43l22.929,0l40.293,69.35l0,70.533Zm-123.581,-282.258c41.63,0 75.428,31.41 75.428,70.1c0,38.689 -33.798,70.1 -75.428,70.1c-41.63,0 -75.429,-31.411 -75.429,-70.1c0,-38.69 33.799,-70.1 75.429,-70.1Z" style="fill:#fcfcfc;"/></svg>